<mxfile host="app.diagrams.net" modified="2023-09-16T10:31:07.817Z" agent="Mozilla/5.0 (Macintosh; Intel Mac OS X 10_15_7) AppleWebKit/605.1.15 (KHTML, like Gecko) Version/16.6 Safari/605.1.15" version="21.7.5" etag="s5dXNepMWvJmjqcCsx8q" type="github">
  <diagram name="Страница — 1" id="diy82ujriIQRDQftrkhA">
    <mxGraphModel>
      <root>
        <mxCell id="0" />
        <mxCell id="1" parent="0" />
      </root>
    </mxGraphModel>
  </diagram>
</mxfile>
